<svg id="Layer_1" data-name="Layer 1" xmlns="http://www.w3.org/2000/svg" viewBox="0 0 128 128"><defs><style>.cls-1{fill:#231f20;}.cls-2{fill:none;stroke:#fff;stroke-miterlimit:10;stroke-width:15px;}.cls-3{fill:#fff;}</style></defs><path class="cls-1" d="M124.72,33.48A15.93,15.93,0,0,0,113.5,22.25c-7.36-2.83-78.58-4.23-99.24.09A15.89,15.89,0,0,0,3,33.56c-3.32,14.56-3.57,46,.08,60.93a15.92,15.92,0,0,0,11.23,11.23c14.56,3.35,83.78,3.82,99.24,0a16,16,0,0,0,11.23-11.23C128.34,78.63,128.6,49.1,124.72,33.48Z"/><line class="cls-2" x1="64" y1="32.8" x2="64" y2="62.91"/><polygon class="cls-3" points="41.56 56.35 64 95.2 86.44 56.35 41.56 56.35"/></svg>